<svg width="99" height="78" viewBox="0 0 99 78" fill="none" xmlns="http://www.w3.org/2000/svg">
<path d="M98.1818 25.7171C98.5957 22.1174 98.4604 18.4756 97.7806 14.9166C96.8689 10.4278 94.335 6.4324 90.6631 3.69417C86.9913 0.955947 82.4391 -0.333056 77.8768 0.0735622C74.2748 0.429091 70.7477 1.32909 67.4157 2.74283C60.6577 5.56639 54.1619 11.1981 48.8234 18.3264C43.4848 25.4548 39.8898 33.2774 39.0721 40.5755C38.9166 41.9222 38.8598 43.2784 38.9023 44.6334C38.9966 47.8807 39.822 51.0648 41.3173 53.9489C42.8125 56.833 44.939 59.3427 47.5384 61.2911C50.1378 63.2396 53.1433 64.5767 56.331 65.2028C59.5187 65.8289 62.8066 65.728 65.9499 64.9075C67.2804 64.5503 68.5847 64.1018 69.8535 63.5652C76.627 60.7416 83.1073 55.0945 88.4459 47.9661C93.7844 40.8378 97.364 33.0151 98.1818 25.7171Z" fill="#F8E4BE"/>
<path d="M94.2793 10.1338C98.4297 18.7125 97.2571 28.7878 93.3843 37.2277C89.1593 46.6877 82.2007 54.6674 73.4034 60.1402C69.5709 62.4881 65.1968 63.8062 60.7051 63.9666C69.4998 63.442 77.2607 57.5018 82.9541 51.2066C89.6967 43.7542 95.3747 34.2344 96.2388 24.0047C96.723 19.2905 96.0504 14.5294 94.2793 10.1338Z" fill="#54372B"/>
<path d="M88.7705 10.0566L88.1996 10.5504C87.8293 10.8898 87.2893 11.399 86.6567 12.0933C84.9775 14.0448 83.4311 16.1066 82.0279 18.265C81.1484 19.592 80.0683 20.9806 79.0963 22.4927C78.0959 24.0967 77.2832 25.8103 76.6739 27.5998C76.0522 29.5265 75.6637 31.5208 75.5167 33.54C75.3316 35.6829 74.9336 37.802 74.3286 39.8661C73.6665 41.9506 72.5849 43.8777 71.1502 45.5286C69.7357 47.0817 68.1868 48.5067 66.5214 49.7871C64.9785 51.0523 63.4355 52.1478 61.8926 53.197C60.4905 54.1915 59.0382 55.1133 57.5415 55.9588C55.2859 57.2451 52.8527 58.1913 50.3206 58.767C49.4103 58.9675 48.6851 59.0601 48.1914 59.1373L47.4199 59.2144L48.176 59.091C48.6697 58.9984 49.3949 58.8595 50.2898 58.6127C52.7487 57.9057 55.1001 56.8675 57.2793 55.5268C58.7411 54.6333 60.1524 53.6597 61.5069 52.6107C63.0498 51.5306 64.5927 50.3734 66.1357 49.1236C67.7162 47.8558 69.1872 46.4571 70.533 44.9423C71.8693 43.365 72.8718 41.5332 73.48 39.5575C74.0818 37.5437 74.4899 35.4771 74.699 33.3857C74.8644 31.2855 75.2841 29.2132 75.9487 27.214C76.6002 25.3742 77.487 23.6265 78.5871 22.0144C79.6363 20.4714 80.7164 19.1599 81.673 17.8484C83.1803 15.749 84.8464 13.7682 86.6567 11.9236C87.3201 11.2756 87.8756 10.7972 88.1996 10.4732L88.7705 10.0566Z" fill="#54372B"/>
<path d="M88.3853 7.86523C84.6823 10.7814 82.661 14.3147 79.5289 18.1566C76.3657 21.7385 74.2328 26.1109 73.3571 30.8086C73.0983 33.6915 72.6134 36.5495 71.9068 39.3564C70.225 44.4018 64.9173 47.7191 60.7514 50.9284C56.5855 54.1377 52.3887 56.6373 47.1582 57.2544C50.6385 54.7304 53.8911 51.9063 56.8786 48.8146C59.8126 45.3109 61.9218 41.1927 63.0504 36.7643C64.2539 32.799 64.0533 28.4325 65.6888 24.5443C67.7409 19.6995 72.4006 16.3976 76.6745 13.3426C80.4547 10.6734 83.7565 8.40526 88.3853 7.86523Z" fill="#54372B"/>
<path d="M22.0386 22.4305C18.409 22.7115 14.8442 23.5494 11.4695 24.9146C7.23789 26.6697 3.80323 29.9252 1.82426 34.0569C-0.154701 38.1885 -0.538627 42.9053 0.746124 47.3026C1.78267 50.7652 3.34371 54.0487 5.37492 57.0384C9.46368 63.133 16.1754 68.4253 24.2604 72.2826C32.3453 76.1399 40.6617 78.1612 47.9752 77.5594C49.3246 77.4426 50.6648 77.2365 51.9869 76.9422C55.1597 76.229 58.1306 74.8086 60.6779 72.7869C63.2252 70.7652 65.2831 68.1945 66.6982 65.2664C68.1133 62.3384 68.849 59.1286 68.8504 55.8765C68.8518 52.6245 68.1189 49.4141 66.7064 46.4848C66.1198 45.2474 65.4497 44.0515 64.7006 42.9052C60.6273 36.8106 53.9001 31.5338 45.7997 27.6765C37.6993 23.8191 29.3521 21.8133 22.0386 22.4305Z" fill="#F8E4BE"/>
<path d="M7.48828 29.2505C15.0024 23.6033 24.9697 22.7393 33.9187 24.8223C44.1439 27.0975 53.4396 32.4178 60.5805 40.0818C63.6075 43.398 65.7325 47.4356 66.7522 51.8081C64.5304 43.2757 57.2169 36.8108 49.9343 32.4443C41.3093 27.2601 30.8482 23.5416 20.6186 24.7297C15.9436 25.1662 11.4411 26.7164 7.48828 29.2505Z" fill="#54372B"/>
<path d="M8.47656 34.6816L9.0783 35.1445C9.47947 35.4377 10.0812 35.8697 10.8681 36.348C13.0961 37.6283 15.4051 38.7621 17.7804 39.7425C19.3234 40.3596 20.8663 41.1465 22.5018 41.81C24.2675 42.4839 26.1057 42.9499 27.9792 43.1986C29.9878 43.4454 32.0189 43.4454 34.0275 43.1986C36.1671 42.99 38.3219 42.99 40.4615 43.1986C42.6353 43.4434 44.7358 44.1313 46.6333 45.2199C48.4184 46.2836 50.1067 47.502 51.6786 48.8612C53.2215 50.1572 54.6102 51.515 55.9371 52.7802C57.1991 53.962 58.399 55.2083 59.5321 56.5141C61.2302 58.4785 62.6288 60.683 63.6826 63.0561C64.0529 63.9202 64.2998 64.5991 64.4541 65.0928L64.6701 65.818L64.4078 65.0928C64.2226 64.6299 63.9449 63.951 63.5283 63.1333C62.3609 60.85 60.8866 58.7371 59.1464 56.8536C58.0818 55.6809 56.832 54.5083 55.4742 53.274C54.1164 52.0396 52.697 50.7435 51.1695 49.4783C49.6147 48.1435 47.9472 46.9458 46.1858 45.8987C44.3801 44.8964 42.3916 44.2668 40.3381 44.0472C38.2599 43.8467 36.1673 43.8467 34.0892 44.0472C32.0396 44.2972 29.9671 44.2972 27.9175 44.0472C25.9791 43.7902 24.0846 43.2711 22.2858 42.5043C20.5732 41.7637 19.0765 40.9614 17.657 40.2979C15.3022 39.2319 13.0371 37.9781 10.8835 36.5486C10.1121 36.024 9.54119 35.5611 9.15546 35.2525L8.47656 34.6816Z" fill="#54372B"/>
<path d="M6.4082 35.4839C9.9878 38.5697 13.8297 39.8504 18.2116 42.1802C22.3326 44.5879 27.0325 45.8255 31.8048 45.7598C34.685 45.4592 37.584 45.3819 40.4761 45.5284C45.7529 46.2227 50.0268 50.7898 53.9922 54.2459C57.9575 57.7021 61.2131 61.3588 62.8177 66.3579C59.6659 63.4389 56.2693 60.796 52.6653 58.4581C48.6588 56.2541 44.2085 54.9781 39.6429 54.7242C35.5079 54.3076 31.2648 55.3568 27.1452 54.4928C21.9918 53.4127 17.8876 49.4937 14.0303 45.8832C10.6976 42.7202 7.8277 39.9121 6.4082 35.4839Z" fill="#54372B"/>
</svg>
