<svg width="107" height="107" viewBox="0 0 107 107" fill="none" xmlns="http://www.w3.org/2000/svg">
<path d="M53.6737 66.8082C59.0919 66.862 64.4716 65.8936 69.531 63.9539C74.4825 69.4681 83.1273 70.2252 83.1273 70.2252C92.5599 75.2279 91.9358 79.5349 92.9384 83.9545C93.0757 84.5891 93.3875 85.1727 93.8384 85.6398C94.2894 86.1068 94.8618 86.4388 95.4912 86.5982C96.1205 86.7577 96.7819 86.7384 97.4009 86.5424C98.0199 86.3465 98.5719 85.9817 98.9948 85.4891C100.413 83.7615 101.496 81.7836 102.187 79.6577C108.213 59.9947 97.8286 54.0814 97.8286 54.0814C98.1457 31.339 77.8893 30.275 77.8893 30.275V30.3466C71.1167 19.5023 53.6532 20.0036 53.6532 20.0036C53.6532 20.0036 36.1897 19.5023 29.4069 30.3466V30.275C29.4069 30.275 9.20164 31.2981 9.49832 54.0098C9.49832 54.0098 -0.885642 59.964 5.14013 79.5861C5.83735 81.7113 6.92313 83.6887 8.34227 85.4175C8.76388 85.9108 9.31511 86.2764 9.93362 86.4728C10.5521 86.6693 11.2133 86.6888 11.8423 86.5292C12.4713 86.3695 13.0431 86.0371 13.4931 85.5694C13.943 85.1018 14.2532 84.5176 14.3885 83.8829C15.4116 79.4633 14.7773 75.1563 24.2098 70.1536C24.2098 70.1536 32.8546 69.3965 37.8062 63.8823C42.8636 65.8491 48.2473 66.8419 53.6737 66.8082Z" fill="#F8E4BE"/>
<path d="M77.8066 48.2503C79.6997 45.0976 80.8735 41.5659 81.2441 37.9073C81.4204 35.4371 81.1146 32.9561 80.3438 30.6027C79.535 30.4223 78.7146 30.2992 77.8885 30.2344C79.2361 32.6156 79.9708 35.2945 80.0267 38.03C80.0334 41.5571 79.276 45.0439 77.8066 48.2503Z" fill="#54372B"/>
<path d="M26.1017 37.9072C26.4673 41.567 27.6414 45.0997 29.5391 48.2503C28.0688 45.0401 27.3081 41.5506 27.3089 38.0198C27.3711 35.2851 28.1054 32.6078 29.4471 30.2241C28.621 30.289 27.8005 30.4121 26.9918 30.5924C26.2231 32.9498 25.9208 35.4343 26.1017 37.9072Z" fill="#54372B"/>
<path d="M97.2862 59.6677C98.1786 58.3147 98.8873 56.8491 99.3937 55.3095C98.9221 54.8193 98.3971 54.3835 97.8284 54.0102C97.8284 53.867 97.8284 53.7238 97.8284 53.5703C97.3853 57.7523 95.5517 61.6646 92.6211 64.6806C94.442 63.2785 96.0184 61.5846 97.2862 59.6677Z" fill="#54372B"/>
<path d="M14.7262 64.7109C11.7881 61.6977 9.94711 57.7851 9.4984 53.6006C9.4984 53.754 9.4984 53.8973 9.4984 54.0405C8.93368 54.4031 8.41199 54.8287 7.94336 55.3091C8.43017 56.8457 9.11818 58.3112 9.98946 59.6673C11.2799 61.5979 12.8803 63.302 14.7262 64.7109Z" fill="#54372B"/>
<path d="M99.5269 60.3325C101.686 63.9132 102.044 68.3021 101.573 72.3841C101.102 76.466 99.7213 80.681 96.7852 83.6376C100.679 76.5162 101.662 68.1631 99.5269 60.3325Z" fill="#54372B"/>
<path d="M7.8102 60.3325C5.65514 68.1719 6.62709 76.5417 10.5213 83.6785C7.5749 80.7117 6.21424 76.5172 5.73341 72.425C5.25258 68.3328 5.6618 63.903 7.8102 60.3325Z" fill="#54372B"/>
<path d="M82.748 34.2241C84.8157 34.697 86.7666 35.5822 88.484 36.8268C90.2015 38.0714 91.6501 39.6497 92.7432 41.4673C94.8745 45.279 95.6601 49.6972 94.9735 54.0099C94.3392 49.9177 93.664 45.8255 91.5156 42.2039C89.3689 38.7997 86.3387 36.0418 82.748 34.2241Z" fill="#54372B"/>
<path d="M24.598 34.2241C21.0066 36.036 17.9758 38.7909 15.8304 42.1937C13.6718 45.8255 12.9966 49.9177 12.3623 54.0099C11.6819 49.6949 12.4747 45.2765 14.613 41.4673C15.7036 39.6497 17.1503 38.0711 18.8661 36.8264C20.5819 35.5818 22.5316 34.6966 24.598 34.2241Z" fill="#54372B"/>
<path d="M31.8516 31.8198C33.2703 29.3248 35.3202 27.2468 37.7955 25.794C40.8301 24.0763 44.1506 22.9221 47.5963 22.3873C54.5019 21.2107 62.1748 21.9269 68.4666 25.17C71.4039 26.6591 73.8456 28.9693 75.4949 31.8198C73.6655 29.6744 71.3935 27.9503 68.8349 26.7659C65.9075 25.4632 62.8056 24.5947 59.6274 24.1878C52.9344 23.2059 46.1022 23.9092 39.7495 26.2339C36.6922 27.408 33.9771 29.3282 31.8516 31.8198Z" fill="#54372B"/>
<path d="M35.003 34.0706C34.737 34.1422 34.5324 34.5003 34.2971 35.3494L33.9492 36.618L34.5426 35.8405C35.2792 34.8481 35.5145 33.9376 35.003 34.0706Z" fill="#54372B"/>
<path d="M69.0712 31.9839C68.9075 32.3522 68.9382 32.5057 69.2349 32.8944C69.9204 33.7845 70.1557 32.7717 69.4907 31.8714C69.3065 31.6054 69.2145 31.6361 69.0712 31.9839Z" fill="#54372B"/>
<path d="M52.9464 32.2392C53.1716 32.1651 53.4055 32.1204 53.6421 32.1062C53.8979 32.1062 53.8467 32.0039 53.4068 31.5947C52.9669 31.1855 52.7214 31.1036 52.6191 31.8709C52.5679 32.3211 52.5986 32.362 52.9464 32.2392Z" fill="#54372B"/>
<path d="M17.7433 44.5879C17.9685 44.5138 18.2023 44.4691 18.439 44.4549C18.6947 44.4549 18.6436 44.3526 18.1934 43.9434C17.7433 43.5342 17.5182 43.4421 17.4159 44.2196C17.3648 44.6698 17.3955 44.7107 17.7433 44.5879Z" fill="#54372B"/>
<path d="M15.4414 48.6183C15.4414 48.8229 15.5233 48.9968 15.6358 48.9968C15.7483 48.9968 15.9222 48.8229 16.0041 48.6183C16.0859 48.4137 16.0041 48.25 15.8097 48.25C15.7128 48.2526 15.6207 48.2922 15.5521 48.3607C15.4836 48.4293 15.444 48.5214 15.4414 48.6183Z" fill="#54372B"/>
<path d="M88.0781 50.8078C88.0781 51.0124 88.16 51.1863 88.2725 51.1863C88.385 51.1863 88.559 51.0124 88.6408 50.8078C88.7227 50.6031 88.6408 50.4395 88.4464 50.4395C88.3496 50.442 88.2574 50.4817 88.1889 50.5502C88.1203 50.6187 88.0807 50.7109 88.0781 50.8078Z" fill="#54372B"/>
<path d="M32.8644 41.0477C32.803 40.618 32.7211 40.5873 32.3222 40.843L31.8516 41.15L32.2608 41.4671C32.7723 41.8661 32.9667 41.7331 32.8644 41.0477Z" fill="#54372B"/>
<path d="M19.4933 51.6877C19.4319 51.2682 19.3501 51.2375 18.9511 51.4831L18.4805 51.79L18.8897 52.1071C19.4012 52.5061 19.5956 52.3731 19.4933 51.6877Z" fill="#54372B"/>
<path d="M66.1646 29.4569C66.2028 29.5445 66.2658 29.619 66.3457 29.6714C66.4257 29.7238 66.5192 29.7517 66.6148 29.7517C66.7104 29.7517 66.8039 29.7238 66.8838 29.6714C66.9638 29.619 67.0267 29.5445 67.0649 29.4569C67.2286 29.2011 67.1979 29.109 66.8603 28.8226C66.6911 28.6682 66.4878 28.556 66.267 28.4952C65.9907 28.4338 65.9396 29.017 66.1646 29.4569Z" fill="#54372B"/>
<path d="M87.9569 47.3806C87.9951 47.4683 88.058 47.5428 88.138 47.5952C88.2179 47.6476 88.3114 47.6754 88.407 47.6754C88.5026 47.6754 88.5961 47.6476 88.6761 47.5952C88.756 47.5428 88.819 47.4683 88.8572 47.3806C89.0106 47.1351 88.9799 47.043 88.6423 46.7566C88.4758 46.5984 88.2715 46.4857 88.0489 46.4292C87.7829 46.4497 87.7216 46.9816 87.9569 47.3806Z" fill="#54372B"/>
<path d="M15.2998 52.6183C15.5351 52.9048 15.8113 52.6183 15.7295 52.1477C15.7075 52.06 15.6578 51.9818 15.5878 51.9246C15.5177 51.8675 15.4311 51.8345 15.3408 51.8306C15.0031 51.8306 14.9827 52.2296 15.2998 52.6183Z" fill="#54372B"/>
<path d="M56.0264 26.0294C56.2822 26.2647 56.4664 26.3056 56.5277 26.1317C56.5891 25.9578 56.2311 25.6407 56.0162 25.7327C55.8014 25.8248 55.8423 25.8657 56.0264 26.0294Z" fill="#54372B"/>
<path d="M21.0988 44.4342C21.3546 44.6695 21.5387 44.7002 21.6001 44.5263C21.6615 44.3524 21.3034 44.0353 21.0783 44.1376C20.8533 44.2399 20.9146 44.2603 21.0988 44.4342Z" fill="#54372B"/>
<path d="M48.8248 34.3063C49.1726 34.6746 49.2135 34.6643 49.4488 34.1017C49.6841 33.539 49.5921 33.0786 49.1828 33.0786C48.7736 33.0786 48.4872 33.9277 48.8248 34.3063Z" fill="#54372B"/>
<path d="M67.3005 37.2831C67.2392 37.3244 67.1898 37.3811 67.1575 37.4476C67.1252 37.5141 67.111 37.5879 67.1163 37.6616C67.1163 37.7844 67.3005 37.856 67.5665 37.856C67.8325 37.856 68.0064 37.7333 67.6995 37.3036C67.5563 37.099 67.5256 37.099 67.3005 37.2831Z" fill="#54372B"/>
<path d="M52.2206 26.7457C52.2675 26.9788 52.3503 27.2031 52.4662 27.4107C52.7117 27.8506 53.0186 27.7074 53.1721 27.1038C53.3255 26.5002 53.2949 26.4081 52.6913 26.3672C52.2718 26.3876 52.19 26.3876 52.2206 26.7457Z" fill="#54372B"/>
<path d="M57.1015 33.4771C56.7946 33.4771 56.815 33.8965 57.1015 34.1011C57.3879 34.3057 57.4186 34.2443 57.4596 34.1011C57.5005 33.9579 57.3266 33.4771 57.1015 33.4771Z" fill="#54372B"/>
<path d="M23.2693 37.8867C22.9522 37.8867 22.9726 38.3062 23.2693 38.5108C23.566 38.7154 23.5864 38.654 23.6274 38.5108C23.6683 38.3676 23.4842 37.8867 23.2693 37.8867Z" fill="#54372B"/>
<path d="M14.3684 55.6263C13.8568 55.6263 13.5602 56.1787 13.9387 56.4242C14.3172 56.6698 14.6037 56.5163 14.7162 56.0252C14.7277 55.9749 14.7271 55.9226 14.7145 55.8726C14.702 55.8225 14.6777 55.7761 14.6438 55.7372C14.6099 55.6983 14.5673 55.668 14.5194 55.6487C14.4715 55.6294 14.4198 55.6217 14.3684 55.6263Z" fill="#54372B"/>
<path d="M90.7284 52.271C90.2168 52.271 89.9099 52.8235 90.2987 53.069C90.6874 53.3145 90.9637 53.1611 91.0762 52.6802C91.0896 52.6292 91.0905 52.5758 91.0789 52.5243C91.0672 52.4729 91.0432 52.4251 91.0091 52.3849C90.9749 52.3447 90.9315 52.3134 90.8827 52.2935C90.8338 52.2737 90.7809 52.266 90.7284 52.271Z" fill="#54372B"/>
<path d="M17.1925 54.9614C17.1012 54.9655 17.0143 55.0015 16.9469 55.0632C16.8796 55.125 16.8362 55.2085 16.8242 55.299C16.8242 55.4832 16.8856 55.6264 16.9981 55.6264C17.1107 55.6264 17.2744 55.4832 17.3664 55.299C17.4585 55.1149 17.3767 54.9614 17.1925 54.9614Z" fill="#54372B"/>
<path d="M91.5573 56.1992C91.4672 56.2036 91.3816 56.24 91.3159 56.3019C91.2503 56.3638 91.2089 56.4471 91.1992 56.5368C91.1992 56.7107 91.2606 56.8642 91.3731 56.8642C91.4857 56.8642 91.6494 56.7107 91.7312 56.5368C91.8131 56.3629 91.7414 56.1992 91.5573 56.1992Z" fill="#54372B"/>
<path d="M60.355 27.4823C60.4368 27.8097 60.4777 27.8097 61.0404 27.4823C61.6031 27.155 61.5417 26.9094 60.979 26.889C60.4164 26.8685 60.2629 27.0936 60.355 27.4823Z" fill="#54372B"/>
<path d="M38.0004 30.7153C37.9545 30.7676 37.8978 30.8093 37.8342 30.8376C37.7706 30.8658 37.7017 30.8799 37.6321 30.879C37.274 30.879 37.1513 30.9813 37.1206 31.3189C37.0899 31.6565 37.1206 31.6155 37.448 31.6667L37.9288 31.769C38.0004 31.769 38.0822 31.6769 38.1129 31.5439C38.1436 31.4109 38.2152 31.2882 38.2766 31.2882C38.338 31.2882 38.3585 31.2268 38.338 31.1449C38.3327 31.0932 38.3401 31.041 38.3598 30.9928C38.3794 30.9446 38.4106 30.902 38.4505 30.8687C38.4863 30.8449 38.516 30.8131 38.5373 30.7758C38.5586 30.7385 38.571 30.6968 38.5733 30.6539C38.5426 30.48 38.1436 30.5618 38.0004 30.7153Z" fill="#54372B"/>
<path d="M60.2411 30.8685C59.9035 30.7866 59.8114 30.9606 59.9956 31.3391C60.0214 31.4055 60.0626 31.4648 60.1158 31.5121C60.1689 31.5595 60.2326 31.5935 60.3015 31.6115C60.3704 31.6295 60.4426 31.6309 60.5121 31.6155C60.5816 31.6002 60.6466 31.5685 60.7015 31.5232C60.8959 31.38 60.6503 30.9606 60.2411 30.8685Z" fill="#54372B"/>
<path d="M45.3863 29.569C45.2418 29.573 45.1005 29.5259 44.9873 29.436C44.951 29.4069 44.9059 29.3911 44.8594 29.3911C44.813 29.3911 44.7679 29.4069 44.7316 29.436C44.6088 29.5281 44.7316 29.9168 44.9873 30.5409C45.0487 30.6637 45.2431 30.725 45.4784 30.6944C45.7137 30.6637 45.8569 30.5818 45.7648 30.1112C45.6728 29.6406 45.6114 29.569 45.3863 29.569Z" fill="#54372B"/>
<path d="M92.191 49.7028C92.0477 49.7098 91.9066 49.6663 91.792 49.58C91.7557 49.551 91.7106 49.5352 91.6641 49.5352C91.6176 49.5352 91.5725 49.551 91.5362 49.58C91.4135 49.6721 91.5362 50.0609 91.792 50.6849C91.8534 50.8077 92.0478 50.8691 92.2831 50.8384C92.5184 50.8077 92.6616 50.7259 92.5695 50.2553C92.4774 49.7847 92.4161 49.7028 92.191 49.7028Z" fill="#54372B"/>
<path d="M48.3125 27.6665C47.8214 27.6665 47.8112 27.7381 48.2204 28.3622C48.6296 28.9862 49.2434 29.0169 49.1207 28.6179C49.0184 28.045 48.691 27.6665 48.3125 27.6665Z" fill="#54372B"/>
<path d="M45.8468 34.4391C45.8567 34.4891 45.8859 34.5332 45.928 34.5619C45.9701 34.5906 46.0218 34.6016 46.0719 34.5926L46.6243 34.4596L47.0233 34.3778L46.7573 34.122C46.256 33.6412 45.6627 33.8458 45.8468 34.4391Z" fill="#54372B"/>
<path d="M23.7081 41.8967C23.7181 41.9466 23.7472 41.9907 23.7893 42.0194C23.8314 42.0481 23.8831 42.0591 23.9332 42.0501L24.4959 41.9171L24.8847 41.8353L24.6187 41.5795C24.1174 41.0987 23.524 41.3033 23.7081 41.8967Z" fill="#54372B"/>
<path d="M83.6906 40.4235C83.7005 40.4735 83.7296 40.5176 83.7717 40.5463C83.8138 40.575 83.8655 40.586 83.9156 40.577C83.9975 40.577 84.2532 40.4951 84.4681 40.444L84.8671 40.3621L84.6011 40.1064C84.0998 39.6255 83.5064 39.8301 83.6906 40.4235Z" fill="#54372B"/>
<path d="M60.385 36.3624C60.7124 36.6796 60.8249 36.6591 61.1114 36.2499C61.3979 35.8407 61.2751 35.5542 60.8045 35.5542C60.3339 35.5542 60.0884 36.076 60.385 36.3624Z" fill="#54372B"/>
<path d="M41.0593 32.1372C40.5478 32.1372 40.5273 32.8636 41.0593 33.6513C41.5913 34.4391 41.888 34.5516 41.9698 33.9378C42.0517 33.3239 41.4481 32.1372 41.0593 32.1372Z" fill="#54372B"/>
<path d="M83.4031 43.5439C82.8915 43.5439 82.8711 44.2703 83.4031 45.0581C83.9351 45.8458 84.2317 45.9583 84.3136 45.3445C84.3954 44.7307 83.7918 43.5439 83.4031 43.5439Z" fill="#54372B"/>
<path d="M40.8547 36.8022C40.6975 36.8266 40.5366 36.8015 40.3943 36.7305C40.2306 36.5464 40.0158 36.8328 40.0771 37.1705C40.0947 37.3109 40.1475 37.4446 40.2306 37.5592C40.3738 37.6717 40.5068 37.6308 40.7012 37.4262C40.8134 37.3191 40.9505 37.2418 41.1002 37.2011C41.1259 37.1974 41.1505 37.1886 41.1727 37.1752C41.1949 37.1618 41.2142 37.1441 41.2295 37.1231C41.2447 37.1021 41.2556 37.0783 41.2615 37.0531C41.2674 37.0278 41.2682 37.0016 41.2639 36.9761C41.2127 36.8226 41.1513 36.7919 40.8547 36.8022Z" fill="#54372B"/>
<path d="M24.8446 45.5901C24.6874 45.6159 24.5261 45.5908 24.3842 45.5185C24.2103 45.3343 24.0057 45.631 24.0568 45.9584C24.0744 46.0989 24.1272 46.2326 24.2103 46.3472C24.3637 46.4597 24.4865 46.4188 24.6911 46.2244C24.7962 46.1113 24.9309 46.0298 25.0799 45.9891C25.1069 45.9887 25.1334 45.982 25.1574 45.9696C25.1814 45.9572 25.2021 45.9393 25.218 45.9175C25.2339 45.8956 25.2445 45.8704 25.2489 45.8438C25.2533 45.8171 25.2515 45.7898 25.2436 45.764C25.1617 45.6106 25.0901 45.5799 24.8446 45.5901Z" fill="#54372B"/>
<path d="M20.548 40.3419C20.3898 40.3654 20.2282 40.3366 20.0877 40.2601C19.924 40.0861 19.7091 40.3726 19.7705 40.7C19.7812 40.8404 19.8308 40.975 19.9137 41.0887C20.0672 41.2013 20.2002 41.1706 20.3946 40.966C20.4909 40.8524 20.614 40.7645 20.7526 40.7102C20.7796 40.7065 20.8056 40.6974 20.829 40.6835C20.8525 40.6695 20.8729 40.6511 20.8891 40.6292C20.9053 40.6072 20.917 40.5823 20.9234 40.5558C20.9298 40.5293 20.9309 40.5018 20.9265 40.4749C20.9163 40.3521 20.8447 40.3215 20.548 40.3419Z" fill="#54372B"/>
<path d="M74.1134 35.3287C74.1134 35.6766 74.1952 35.8198 74.318 35.8709C74.5226 35.963 74.5635 35.963 74.717 35.8709C74.8704 35.7789 74.584 34.8479 74.3589 34.7456C74.1338 34.6433 74.0622 34.766 74.1134 35.3287Z" fill="#54372B"/>
<path d="M67.0343 34.5719C67.0485 34.5123 67.0409 34.4495 67.0127 34.3951C66.9845 34.3406 66.9377 34.2981 66.8809 34.2752C66.6353 34.1525 66.0522 34.6435 66.1545 34.8891C66.2568 35.1346 66.9218 34.7765 67.0343 34.5719Z" fill="#54372B"/>
<path d="M78.1561 41.8356C78.2788 41.7026 78.2788 41.6208 78.1561 41.4673C78.0718 41.3728 77.9614 41.3052 77.8389 41.2729C77.6445 41.2729 77.3274 41.764 77.3786 41.9788C77.4297 42.1937 77.9003 42.1016 78.1561 41.8356Z" fill="#54372B"/>
<path d="M52.7218 35.5952C52.5991 35.5952 52.4456 35.851 52.374 36.1784C52.3024 36.5057 52.374 36.7103 52.507 36.6183C52.8446 36.383 53.0185 35.5952 52.7218 35.5952Z" fill="#54372B"/>
<path d="M85.7768 47.9434C85.654 47.9434 85.4903 48.2094 85.4187 48.5265C85.3471 48.8436 85.4187 49.0585 85.5619 48.9664C85.8996 48.7823 86.0632 47.9434 85.7768 47.9434Z" fill="#54372B"/>
<path d="M22.8898 48.4751C22.767 48.4751 22.6136 48.7309 22.542 49.048C22.4704 49.3652 22.542 49.58 22.675 49.4879C23.0126 49.3038 23.1865 48.4751 22.8898 48.4751Z" fill="#54372B"/>
<path d="M37.3655 38.6642C37.4985 38.6642 37.6008 38.48 37.5905 38.255C37.5803 38.0299 37.4678 37.8662 37.3348 37.8662C37.2018 37.8662 37.1097 38.0401 37.1199 38.255C37.1301 38.4698 37.2325 38.6642 37.3655 38.6642Z" fill="#54372B"/>
<path d="M19.5354 47.8717C19.6684 47.8717 19.7604 47.6978 19.7604 47.4727C19.7604 47.2476 19.6377 47.0737 19.5047 47.0737C19.3717 47.0737 19.2796 47.2579 19.2898 47.4727C19.3001 47.6876 19.4024 47.8717 19.5354 47.8717Z" fill="#54372B"/>
<path d="M56.4458 29.0883C56.7732 29.4771 57.1006 29.4668 57.1926 29.0883C57.2847 28.7098 56.7323 28.1983 56.4049 28.362C56.0775 28.5256 56.1491 28.72 56.4458 29.0883Z" fill="#54372B"/>
<path d="M87.0552 42.3471C87.3826 42.7461 87.7099 42.7256 87.802 42.3471C87.8941 41.9686 87.3417 41.4571 87.0143 41.6207C86.6869 41.7844 86.7585 41.9788 87.0552 42.3471Z" fill="#54372B"/>
<path d="M75.0251 38.8174C75.2706 38.6844 75.1786 38.5207 74.7796 38.4082C74.7456 38.3917 74.7086 38.3826 74.6709 38.3815C74.6332 38.3804 74.5956 38.3873 74.5608 38.4018C74.526 38.4163 74.4946 38.4381 74.4688 38.4656C74.4431 38.4932 74.4234 38.5259 74.4113 38.5617C74.3397 38.6947 74.3499 38.8277 74.4113 38.8584C74.5081 38.9061 74.6159 38.9275 74.7237 38.9203C74.8315 38.9132 74.9354 38.8777 75.0251 38.8174Z" fill="#54372B"/>
<path d="M91.7525 46.1017C91.998 45.9687 91.8957 45.8051 91.507 45.6925C91.3126 45.6414 91.2205 45.6925 91.1284 45.846C91.0363 45.9994 91.067 46.112 91.1284 46.1427C91.2271 46.1903 91.3365 46.2116 91.4458 46.2045C91.5552 46.1973 91.6609 46.1619 91.7525 46.1017Z" fill="#54372B"/>
<path d="M70.5441 37.1498C70.5441 36.894 70.3906 36.8838 70.0735 37.1498C69.7563 37.4158 69.92 37.9171 70.4008 37.9171C70.4929 37.9171 70.585 37.9171 70.5952 37.9989C70.5952 38.1217 70.9124 38.1217 70.9737 37.9989C71.0351 37.8761 70.9226 37.7943 70.7998 37.6511C70.6759 37.5067 70.5883 37.3348 70.5441 37.1498Z" fill="#54372B"/>
<path d="M77.173 37.2215C77.3163 37.4875 77.5413 37.467 77.6641 37.1601C77.7869 36.8532 77.4186 36.4951 77.1321 36.4951C76.8457 36.4951 77.0196 36.935 77.173 37.2215Z" fill="#54372B"/>
<path d="M30.7472 36.8841C30.8933 36.7348 30.9836 36.5397 31.003 36.3317C31.003 36.0964 31.003 36.0862 30.7574 36.3317C30.6144 36.4843 30.5216 36.6771 30.4915 36.8841C30.4812 37.0785 30.5324 37.0888 30.7472 36.8841Z" fill="#54372B"/>
<path d="M42.2363 26.3877C43.1878 31.237 44.0471 36.0965 44.886 40.9662C45.8477 46.5725 46.6559 52.2914 53.7354 52.2914C60.8149 52.2914 61.6436 46.6134 62.5746 41.0378C63.3828 36.1578 64.2217 31.2983 65.1424 26.4388C64.6514 31.3597 64.1194 36.2601 63.4749 41.1708C62.7076 47.3091 61.4288 53.5906 53.7354 53.5804C46.0421 53.5702 44.7837 47.3296 43.9858 41.1503C43.3412 36.1783 42.7376 31.2779 42.2363 26.3877Z" fill="#54372B"/>
</svg>
