<svg width="74" height="106" viewBox="0 0 74 106" fill="none" xmlns="http://www.w3.org/2000/svg">
<path d="M73.5292 27.1291V14.2553C73.5312 10.7397 72.8359 7.25866 71.4834 4.01364C70.972 2.81278 70.1159 1.79056 69.0235 1.0762C67.9311 0.361849 66.6514 -0.0125577 65.3462 0.000344295H8.18295C6.8785 -0.0129909 5.59947 0.361318 4.50803 1.07581C3.41658 1.79029 2.56187 2.81278 2.05226 4.01364C0.694722 7.25734 -0.00294155 10.739 9.32183e-06 14.2553V27.1291C9.32183e-06 27.6475 0.205931 28.1446 0.572476 28.5112C0.93902 28.8777 1.43616 29.0837 1.95453 29.0837H3.21194C2.69074 50.9418 5.87661 76.7089 6.24797 79.6276L1.40075 85.3218C0.515148 86.3643 0.0280391 87.6871 0.0260696 89.055V94.9902C0.0225914 95.9748 0.271574 96.9438 0.749243 97.8047L2.13044 100.28C2.51987 100.976 3.08686 101.556 3.77357 101.961C4.46029 102.367 5.24217 102.582 6.03949 102.587H9.90293V103.499C9.90293 103.931 10.0745 104.345 10.38 104.651C10.6854 104.956 11.0997 105.128 11.5317 105.128H17.6884C18.1204 105.128 18.5347 104.956 18.8402 104.651C19.1456 104.345 19.3172 103.931 19.3172 103.499V102.619H54.2315V103.551C54.2332 103.977 54.4033 104.386 54.7047 104.687C55.0062 104.988 55.4145 105.159 55.8407 105.16H62.0236C62.4498 105.159 62.8581 104.988 63.1596 104.687C63.461 104.386 63.6311 103.977 63.6328 103.551V102.619H67.4897C68.287 102.615 69.0689 102.399 69.7556 101.994C70.4423 101.589 71.0093 101.009 71.3988 100.313L72.7799 97.8373C73.2572 96.9759 73.5082 96.0075 73.5096 95.0228V89.0875C73.5072 87.7209 73.0228 86.3989 72.1415 85.3544L67.2877 79.6342C67.6591 76.7154 70.845 50.9678 70.3238 29.0902H71.5812C71.8378 29.0893 72.0918 29.0379 72.3286 28.9389C72.5655 28.8399 72.7804 28.6952 72.9613 28.5131C73.1422 28.331 73.2855 28.1151 73.3829 27.8776C73.4803 27.6401 73.53 27.3858 73.5292 27.1291ZM4.46935 29.0837H11.6359C12.5899 29.1267 13.4936 29.524 14.1703 30.1977L17.8774 33.9048C18.3538 34.3836 18.9203 34.7631 19.5444 35.0214C20.1684 35.2797 20.8374 35.4117 21.5128 35.4098H52.0034C52.6777 35.4112 53.3456 35.279 53.9685 35.0207C54.5914 34.7623 55.1569 34.3831 55.6323 33.9048L59.3459 30.1977C60.0202 29.5244 60.9217 29.1271 61.8737 29.0837H69.0403C63.1116 59.5091 45.2081 75.7512 16.4571 79.152H7.47932C6.97114 75.0932 4.00678 50.2251 4.4889 29.0706L4.46935 29.0837Z" fill="#F8E4BE"/>
<path d="M56.127 57.3594C62.1274 49.4566 65.5282 40.1596 67.5479 30.5303C66.2388 35.4972 64.5396 40.353 62.4661 45.0524C58.1466 54.6035 51.3905 62.9493 42.5235 68.6174C34.2493 73.9142 24.7894 76.5267 15.1602 78.1034C20.3047 77.6421 25.3876 76.6487 30.3273 75.139C40.5559 71.888 49.6119 65.9462 56.127 57.3594Z" fill="#F8E4BE"/>
<path d="M3.98633 30.1777L11.7067 30.5035L3.98633 30.8292V30.1777Z" fill="#F8E4BE"/>
<path d="M4.10547 32.6729L11.8324 32.9986L4.10547 33.3244V32.6729Z" fill="#F8E4BE"/>
<path d="M4.22852 35.1689L11.9489 35.4947L4.22852 35.8205V35.1689Z" fill="#F8E4BE"/>
<path d="M4.35156 37.6641L12.0719 37.9898L4.35156 38.3156V37.6641Z" fill="#F8E4BE"/>
<path d="M4.46875 40.1592L12.1891 40.4849L4.46875 40.8107V40.1592Z" fill="#F8E4BE"/>
<path d="M4.59375 42.6543L12.3141 42.9801L4.59375 43.3058V42.6543Z" fill="#F8E4BE"/>
<path d="M4.71094 45.1494L12.4378 45.4752L4.71094 45.8009V45.1494Z" fill="#F8E4BE"/>
<path d="M4.83398 47.6445L12.5544 47.9703L4.83398 48.296V47.6445Z" fill="#F8E4BE"/>
<path d="M4.95117 50.1406L12.6781 50.4664L4.95117 50.7921V50.1406Z" fill="#F8E4BE"/>
<path d="M5.07617 52.6357L12.7965 52.9615L5.07617 53.2872V52.6357Z" fill="#F8E4BE"/>
<path d="M5.19336 55.1309L12.9202 55.4566L5.19336 55.7824V55.1309Z" fill="#F8E4BE"/>
<path d="M5.31641 57.626L13.0368 57.9517L5.31641 58.2775V57.626Z" fill="#F8E4BE"/>
<path d="M5.43945 60.1211L13.1598 60.4468L5.43945 60.7726V60.1211Z" fill="#F8E4BE"/>
<path d="M5.55859 62.6172L13.2855 62.9429L5.55859 63.2687V62.6172Z" fill="#F8E4BE"/>
<path d="M5.68164 65.1123L13.402 65.4381L5.68164 65.7638V65.1123Z" fill="#F8E4BE"/>
<path d="M5.79883 67.6074L13.5257 67.9332L5.79883 68.2589V67.6074Z" fill="#F8E4BE"/>
<path d="M5.92188 70.1025L13.6422 70.4283L5.92188 70.754V70.1025Z" fill="#F8E4BE"/>
<path d="M6.03906 72.5977L13.7659 72.9234L6.03906 73.2492V72.5977Z" fill="#F8E4BE"/>
<path d="M6.16406 75.0928L13.8844 75.4185L6.16406 75.7443V75.0928Z" fill="#F8E4BE"/>
<path d="M6.28125 77.5884L14.0081 77.9141L6.28125 78.2399V77.5884Z" fill="#F8E4BE"/>
<path d="M24.9398 35.3967V37.8724C24.9415 38.3021 25.113 38.7137 25.4168 39.0176C25.7207 39.3215 26.1323 39.4929 26.562 39.4946H26.6141L3.73971 40.9866C2.07185 41.2211 0.925192 43.7816 1.33564 46.6808C1.74609 49.58 3.42047 51.7495 5.08833 51.5084L31.2333 46.4723C32.0301 46.8165 32.8815 47.0172 33.7482 47.0652V48.4464C33.7482 48.7056 33.8511 48.9541 34.0344 49.1374C34.2177 49.3207 34.4662 49.4236 34.7254 49.4236H35.0381V50.212C35.0381 50.2465 35.0519 50.2797 35.0763 50.3041C35.1007 50.3285 35.1339 50.3423 35.1684 50.3423H38.3608C38.3954 50.3423 38.4285 50.3285 38.453 50.3041C38.4774 50.2797 38.4911 50.2465 38.4911 50.212V49.4236H38.8104C39.0696 49.4236 39.3181 49.3207 39.5014 49.1374C39.6847 48.9541 39.7876 48.7056 39.7876 48.4464V47.0652C41.7253 46.9506 43.5461 46.1006 44.878 44.6887C46.21 43.2768 46.9526 41.4096 46.9542 39.4686H46.9998C47.4301 39.4686 47.8427 39.2977 48.1469 38.9934C48.4512 38.6892 48.6221 38.2766 48.6221 37.8463V35.3706L24.9398 35.3967Z" fill="#F8E4BE"/>
<path d="M71.1121 86.8201L65.9 80.5396H7.60312L2.39106 86.8201C2.35928 86.8573 2.33647 86.9012 2.32437 86.9486C2.31228 86.996 2.31123 87.0455 2.3213 87.0933C2.33137 87.1412 2.3523 87.1861 2.38247 87.2245C2.41264 87.263 2.45124 87.2941 2.4953 87.3152C3.91559 88.0254 10.6001 90.3838 36.7451 90.3838C62.8901 90.3838 69.5811 88.0254 71.0013 87.3152C71.0459 87.2947 71.0851 87.2641 71.116 87.2259C71.1468 87.1877 71.1684 87.143 71.1791 87.0951C71.1899 87.0471 71.1894 86.9974 71.1778 86.9497C71.1661 86.902 71.1437 86.8577 71.1121 86.8201Z" fill="#54372B"/>
<path d="M64.2461 81.1191C64.2461 81.1191 64.6109 81.4384 65.1061 81.9726C65.6012 82.5069 66.2332 83.2756 66.8261 84.0249C67.4189 84.7741 67.9792 85.6145 68.3701 86.2465C68.761 86.8785 69.0216 87.341 69.0216 87.341C69.0216 87.341 68.6503 87.0218 68.1486 86.4941C67.539 85.8418 66.9627 85.159 66.4221 84.4483C65.8293 83.6665 65.2755 82.8521 64.8846 82.2137C64.4937 81.5752 64.2461 81.1191 64.2461 81.1191Z" fill="#F8E4BE"/>
<path d="M9.28399 81.1191C9.28399 81.1191 8.91915 81.4384 8.424 81.9726C7.92886 82.5069 7.30341 83.2756 6.70402 84.0249C6.10463 84.7741 5.55085 85.6145 5.15995 86.2465C4.93486 86.6004 4.72827 86.9657 4.54102 87.341C4.54102 87.341 4.91238 87.0218 5.40752 86.4941C6.01949 85.842 6.5979 85.1592 7.14053 84.4483C7.68824 83.7297 8.19924 82.9839 8.67158 82.2137C9.06248 81.5947 9.28399 81.1191 9.28399 81.1191Z" fill="#F8E4BE"/>
<path d="M65.5408 87.0934C65.1499 86.3767 64.5961 85.4581 63.9967 84.572C63.3973 83.686 62.7523 82.8455 62.2441 82.2396C61.736 81.6337 61.3516 81.2559 61.3516 81.2559C61.3516 81.2559 61.5666 81.7771 61.951 82.4937C62.3353 83.2104 62.8891 84.1355 63.482 85.0216C64.031 85.8282 64.6203 86.6066 65.2476 87.354C65.5292 87.6938 65.8294 88.0179 66.1467 88.3247C66.1467 88.3247 65.9317 87.81 65.5408 87.0934Z" fill="#F8E4BE"/>
<path d="M60.8383 84.7224C60.3041 83.8364 59.7307 82.9829 59.2747 82.364C58.8186 81.7451 58.4668 81.3672 58.4668 81.3672C58.6124 81.7861 58.7798 82.1971 58.9685 82.5985C59.3585 83.4654 59.7934 84.3113 60.2715 85.1329C60.7499 85.9481 61.2741 86.7355 61.8416 87.4914C62.0963 87.8367 62.3703 88.1674 62.6625 88.4816C62.5124 88.0647 62.3406 87.6558 62.1478 87.2568C61.8481 86.5336 61.34 85.615 60.8383 84.7224Z" fill="#F8E4BE"/>
<path d="M57.6721 84.9244C57.2561 84.0701 56.7972 83.2373 56.2974 82.4291C56.0754 82.0625 55.834 81.708 55.5742 81.3672C55.6867 81.8081 55.8215 82.243 55.9782 82.6702C56.2518 83.4194 56.6297 84.3902 57.1183 85.3283C57.5323 86.1849 57.9934 87.018 58.4995 87.8236C58.7262 88.1881 58.9719 88.5404 59.2357 88.8791C59.2357 88.8791 59.0989 88.3448 58.8187 87.5761C58.4832 86.6727 58.1005 85.7876 57.6721 84.9244Z" fill="#F8E4BE"/>
<path d="M54.5111 85.0289C54.1202 84.0842 53.6837 83.1721 53.3253 82.5076C53.127 82.1382 52.9095 81.7794 52.6738 81.4326C52.755 81.8722 52.8594 82.3071 52.9866 82.7356C53.2532 83.6373 53.5664 84.5245 53.9247 85.3938C54.2768 86.2528 54.6748 87.0923 55.117 87.9086C55.3141 88.2808 55.5316 88.6418 55.7685 88.9901C55.6819 88.5613 55.5732 88.1372 55.4427 87.7197C55.1789 86.8072 54.868 85.9091 54.5111 85.0289Z" fill="#F8E4BE"/>
<path d="M51.3462 85.1652C51.0581 84.3037 50.7254 83.4577 50.3494 82.6308C50.182 82.2543 49.9949 81.8868 49.7891 81.5298C49.8395 81.9527 49.9134 82.3725 50.0106 82.7872C50.4097 84.5797 50.9926 86.3263 51.7501 87.9993C51.9213 88.3763 52.1127 88.7439 52.3234 89.1003C52.2688 88.6754 52.1927 88.2536 52.0954 87.8364C51.8925 86.9335 51.6424 86.0419 51.3462 85.1652Z" fill="#F8E4BE"/>
<path d="M48.1865 85.2629C47.9589 84.396 47.6871 83.5415 47.3721 82.7025C47.2338 82.3228 47.075 81.9509 46.8965 81.5884C46.9191 82.0051 46.9626 82.4204 47.0268 82.8328C47.1614 83.7275 47.3419 84.6147 47.5675 85.4909C47.791 86.3568 48.0629 87.2094 48.3819 88.0448C48.5214 88.4281 48.6846 88.8024 48.8706 89.1654C48.8706 89.1654 48.8706 88.6572 48.7337 87.9145C48.596 87.022 48.4133 86.137 48.1865 85.2629Z" fill="#F8E4BE"/>
<path d="M45.0515 85.3477C44.8691 84.3965 44.6411 83.4584 44.4 82.7417C44.2856 82.3548 44.1507 81.9742 43.9961 81.6016C43.9961 81.6016 43.9961 82.1032 44.0352 82.8394C44.1058 83.7267 44.2233 84.6097 44.387 85.4846C44.5546 86.3649 44.7722 87.235 45.0385 88.0906C45.153 88.4775 45.2878 88.8581 45.4424 89.2307C45.4515 88.8177 45.4385 88.4045 45.4034 87.9929C45.3187 87.2566 45.1884 86.3315 45.0515 85.3477Z" fill="#F8E4BE"/>
<path d="M41.4227 82.8198C41.3381 82.4276 41.2315 82.0404 41.1035 81.6602C41.0672 82.0652 41.052 82.4719 41.0579 82.8785C41.0651 84.6315 41.2595 86.3788 41.6377 88.0906C41.7186 88.483 41.823 88.8703 41.9505 89.2502C41.9911 88.8455 42.0085 88.4387 42.0026 88.0319C41.9961 87.1503 41.9439 86.2695 41.8462 85.3933C41.7355 84.4616 41.5791 83.517 41.4227 82.8198Z" fill="#F8E4BE"/>
<path d="M38.4384 82.8521C38.3824 82.4554 38.3063 82.0618 38.2104 81.6729C38.2104 81.6729 38.1257 82.155 38.0735 82.8716C38.0112 83.7388 37.996 84.6088 38.0279 85.4777C38.067 86.4289 38.1582 87.3801 38.2625 88.0837C38.3184 88.4809 38.3967 88.8746 38.497 89.2629C38.5649 88.8662 38.6106 88.466 38.6338 88.0641C38.6937 87.1968 38.7068 86.3269 38.6729 85.4581C38.6411 84.5859 38.5628 83.716 38.4384 82.8521Z" fill="#F8E4BE"/>
<path d="M35.3185 81.6729C35.2226 82.0618 35.1465 82.4554 35.0905 82.8521C34.9862 83.5622 34.895 84.5134 34.8559 85.4581C34.8253 86.3269 34.8384 87.1967 34.895 88.0641C34.9221 88.4659 34.97 88.8661 35.0384 89.2629C35.1343 88.8739 35.2104 88.4804 35.2664 88.0837C35.3908 87.2198 35.4691 86.3499 35.5009 85.4777C35.5315 84.6089 35.5185 83.7391 35.4618 82.8716C35.4347 82.4698 35.3869 82.0697 35.3185 81.6729Z" fill="#F8E4BE"/>
<path d="M32.1137 82.82C31.9573 83.5171 31.7945 84.4618 31.6837 85.426C31.586 86.3022 31.5338 87.183 31.5273 88.0646C31.5273 88.7878 31.5795 89.2829 31.5795 89.2829C31.7075 88.9027 31.8141 88.5155 31.8987 88.1233C32.0877 87.2627 32.2312 86.3928 32.3287 85.5172C32.4264 84.566 32.4785 83.6083 32.4785 82.9112C32.4785 82.2141 32.4264 81.6929 32.4264 81.6929C32.3038 82.0632 32.1994 82.4394 32.1137 82.82Z" fill="#F8E4BE"/>
<path d="M29.1357 82.7676C28.6339 84.467 28.3086 86.2136 28.1649 87.9797C28.1298 88.3913 28.1168 88.8045 28.1258 89.2175C28.2805 88.8449 28.4153 88.4643 28.5298 88.0774C28.7383 87.3868 28.9663 86.4486 29.1813 85.4714C29.3963 84.4941 29.4745 83.5559 29.5266 82.8262C29.5617 82.4146 29.5747 82.0014 29.5657 81.5884C29.5657 81.5884 29.3442 82.077 29.1357 82.7676Z" fill="#F8E4BE"/>
<path d="M25.3501 85.2629C25.1214 86.137 24.9366 87.022 24.7963 87.9145C24.6856 88.6572 24.666 89.1654 24.666 89.1654C24.8486 88.8008 25.0117 88.4267 25.1546 88.0448C25.4712 87.2092 25.741 86.3566 25.9625 85.4909C26.1932 84.6155 26.3759 83.7281 26.5098 82.8328C26.574 82.4204 26.6175 82.0051 26.6401 81.5884C26.4607 81.9514 26.2998 82.3232 26.158 82.7025C25.8453 83.5416 25.5757 84.3962 25.3501 85.2629Z" fill="#F8E4BE"/>
<path d="M22.1843 85.1652C21.8716 86.1099 21.5979 87.0806 21.4351 87.8234C21.3377 88.2405 21.2616 88.6624 21.207 89.0873C21.4178 88.7308 21.6092 88.3633 21.7804 87.9862C22.1605 87.1602 22.4954 86.3142 22.7837 85.4519C23.0964 84.5007 23.3635 83.5364 23.5264 82.7872C23.6893 82.038 23.7479 81.5298 23.7479 81.5298C23.7479 81.5298 23.4938 81.9533 23.1811 82.6308C22.805 83.4577 22.4723 84.3037 22.1843 85.1652Z" fill="#F8E4BE"/>
<path d="M18.9905 85.0283C18.6061 85.9665 18.2673 86.9372 18.0458 87.6865C17.8243 88.4357 17.7266 88.9569 17.7266 88.9569C17.9647 88.6095 18.1822 88.2483 18.3781 87.8754C18.8256 87.0618 19.2237 86.222 19.5703 85.3606C19.9316 84.4924 20.2448 83.605 20.5085 82.7024C20.73 81.9532 20.8277 81.3994 20.8277 81.3994C20.8277 81.3994 20.5411 81.8164 20.1762 82.4809C19.7368 83.3088 19.341 84.1591 18.9905 85.0283Z" fill="#F8E4BE"/>
<path d="M17.2332 82.4226C16.8228 83.0741 16.3211 83.9797 15.8585 84.9179C15.396 85.8561 14.9855 86.8203 14.7119 87.5761C14.4383 88.3318 14.2949 88.8791 14.2949 88.8791C14.2949 88.8791 14.6207 88.4751 15.0376 87.8236C15.4546 87.1721 15.9563 86.2665 16.4188 85.3283C16.8425 84.4625 17.2209 83.5753 17.5525 82.6702C17.8261 81.921 17.9629 81.3672 17.9629 81.3672C17.7022 81.7066 17.4587 82.0589 17.2332 82.4226Z" fill="#F8E4BE"/>
<path d="M15.0818 81.3672C14.7955 81.6853 14.5258 82.018 14.2739 82.364C13.8114 82.9829 13.238 83.8364 12.7103 84.7224C12.1826 85.6085 11.694 86.5402 11.3617 87.2568C11.0294 87.9735 10.8535 88.4816 10.8535 88.4816C11.1457 88.1674 11.4198 87.8367 11.6744 87.4914C12.2397 86.7339 12.7638 85.9466 13.2445 85.1329C13.7324 84.3113 14.1782 83.4654 14.5801 82.5985C14.7688 82.1971 14.9362 81.7861 15.0818 81.3672Z" fill="#F8E4BE"/>
<path d="M12.176 81.2559C12.176 81.2559 11.7981 81.6272 11.2899 82.2396C10.7817 82.8521 10.1367 83.6925 9.53735 84.572C8.93796 85.4516 8.37767 86.3767 7.99328 87.0934C7.60889 87.81 7.38086 88.3247 7.38086 88.3247C7.69944 88.0171 8.00171 87.6931 8.28645 87.354C8.91141 86.6064 9.4985 85.8279 10.0455 85.0216C10.5992 84.206 11.1103 83.3622 11.5766 82.4937C11.7984 82.0921 11.9985 81.6789 12.176 81.2559Z" fill="#F8E4BE"/>
<path d="M55.8398 104.613L63.1172 103.101V103.518C63.1172 103.809 63.0019 104.087 62.7966 104.292C62.5913 104.498 62.3129 104.613 62.0227 104.613H55.8398Z" fill="#54372B"/>
<path d="M11.5059 104.613L18.7832 103.101V103.518C18.7832 103.809 18.6679 104.087 18.4626 104.292C18.2574 104.498 17.979 104.613 17.6887 104.613H11.5059Z" fill="#54372B"/>
<path d="M69.1585 28.9468C69.1585 28.9468 69.1585 29.3507 69.1585 30.0999C69.1585 30.8492 69.2041 31.9502 69.2107 33.3575C69.2172 34.7647 69.2107 36.4652 69.2107 38.4197C69.2107 40.3742 69.1129 42.5698 69.0087 44.9739C68.9044 47.3779 68.7546 49.9709 68.5657 52.7203C68.3767 55.4697 68.1487 58.3623 67.8751 61.3528C67.6014 64.3432 67.2952 67.4378 66.9499 70.5716C66.7675 72.1352 66.5851 73.7184 66.4026 75.3016C66.0443 78.2659 66.1681 78.9956 65.5166 79.0282L29.2276 79.1585H13.207L29.2211 78.9565C73.8624 78.5721 62.5262 78.6698 65.5036 78.6503C65.5342 78.6487 65.5631 78.6359 65.5848 78.6142C65.6064 78.5925 65.6193 78.5636 65.6208 78.533C65.7642 77.4385 65.686 78.0639 66.0378 75.2755C66.2333 73.6945 66.4244 72.12 66.6111 70.5521C66.976 67.4183 67.3017 64.3367 67.5819 61.3462C67.862 58.3558 68.1096 55.4827 68.3181 52.7203C68.5266 49.9579 68.6764 47.3779 68.8002 44.9804C68.924 42.5828 69.0152 40.3807 69.0673 38.4327C69.1194 36.4847 69.1455 34.7843 69.1781 33.3835C69.2106 31.9828 69.1781 30.8752 69.1781 30.126C69.1781 29.3768 69.1585 28.9468 69.1585 28.9468Z" fill="#54372B"/>
<path d="M7.37499 45.8408C7.62993 47.2947 7.4297 48.7918 6.80167 50.1277C7.41619 49.2931 7.73486 48.2775 7.70726 47.2415C7.77335 45.9068 7.55114 44.5736 7.05575 43.3324C6.71418 42.3635 6.07586 41.5268 5.23153 40.9414L3.74609 41.0391C5.40744 40.772 6.96454 42.9481 7.37499 45.8408Z" fill="#54372B"/>
<path d="M46.9222 39.4946H40.9414L46.9027 39.8855C46.9092 39.7552 46.9222 39.6249 46.9222 39.4946Z" fill="#54372B"/>
<path d="M45.9319 40.5044C45.8751 41.3159 45.6555 42.1077 45.2861 42.8325C44.9168 43.5573 44.4053 44.2003 43.7821 44.7232C43.1589 45.2461 42.4368 45.6381 41.6588 45.8759C40.8808 46.1137 40.0629 46.1924 39.2539 46.1074C40.8273 45.9076 42.3139 45.2737 43.5473 44.2766C44.6591 43.25 45.4814 41.9491 45.9319 40.5044Z" fill="#54372B"/>
<path d="M48.5894 35.9894V35.3965H34.6797L48.5894 35.9894Z" fill="#54372B"/>
<path d="M70.0889 5.16016C70.0889 5.16016 70.3104 5.5706 70.6557 6.37195C71.1364 7.54301 71.5008 8.75849 71.7437 10.0009C71.9159 10.8858 72.0377 11.7798 72.1085 12.6786C72.1932 13.6623 72.1867 14.7308 72.1932 15.8579C72.1932 18.1186 72.1932 20.666 72.1932 23.4545C72.1932 24.1451 72.1932 24.8552 72.1932 25.5784V26.1257C72.2154 26.3442 72.1977 26.5649 72.1411 26.7772C72.0989 26.8947 72.0315 27.0017 71.9438 27.0905C71.856 27.1794 71.7499 27.2481 71.6329 27.2919C71.5205 27.3332 71.4007 27.3509 71.2811 27.344H71.001H66.3557H63.9451C63.1336 27.3128 62.3209 27.3477 61.515 27.4482C60.7134 27.5915 59.9489 27.8951 59.2673 28.3408C58.9237 28.5701 58.603 28.8319 58.3096 29.1226L57.3845 30.0347L55.5146 31.8785L54.5634 32.8167C54.2122 33.156 53.7891 33.4121 53.3256 33.5659C52.865 33.7016 52.3846 33.7567 51.9053 33.7288H47.8399L36.7642 33.7613L25.6886 33.7288H21.5971C21.12 33.7567 20.6416 33.7016 20.1834 33.5659C19.7175 33.413 19.2921 33.1569 18.939 32.8167L17.9943 31.8785L16.118 30.0347C15.5439 29.4133 14.9136 28.8462 14.2351 28.3408C13.5559 27.8951 12.7935 27.5915 11.9939 27.4482C11.1858 27.3477 10.371 27.3128 9.55727 27.344H7.14669H2.50144C2.2829 27.3646 2.06243 27.347 1.84994 27.2919C1.73293 27.2481 1.62687 27.1794 1.53911 27.0905C1.45135 27.0017 1.384 26.8947 1.34176 26.7772C1.30323 26.6663 1.28555 26.5492 1.28964 26.4319V25.611C1.28964 24.8878 1.28964 24.1777 1.28964 23.4871C1.28964 20.6986 1.28964 18.1512 1.28964 15.8905C1.28964 14.7634 1.28964 13.6949 1.36782 12.7111C1.44063 11.8122 1.56462 10.9182 1.73918 10.0334C1.98207 8.79108 2.3465 7.5756 2.8272 6.40454C3.16598 5.60318 3.38749 5.19272 3.38749 5.19272L3.28325 5.51848C3.21159 5.72696 3.10735 6.04621 2.97704 6.46317C2.60348 7.65378 2.30108 8.86555 2.07145 10.0921C1.90704 10.9666 1.79176 11.8497 1.72615 12.7372C1.64797 13.7079 1.661 14.7569 1.661 15.8905C1.661 18.1512 1.661 20.6986 1.661 23.4871C1.661 24.1777 1.661 24.8878 1.661 25.611V26.3928C1.64927 26.4574 1.64927 26.5236 1.661 26.5882C1.68128 26.6464 1.71479 26.699 1.75889 26.7419C1.80298 26.7849 1.85645 26.817 1.91509 26.8358C2.07253 26.8621 2.23324 26.8621 2.39069 26.8358H7.03594H9.45955C10.3012 26.798 11.1446 26.8307 11.9809 26.9335C12.8513 27.0818 13.6825 27.4054 14.424 27.8848C14.7934 28.1339 15.14 28.4151 15.4599 28.7252L16.5023 29.6503C17.1539 30.2627 17.7532 30.8687 18.3852 31.4876L19.3364 32.4127C19.6273 32.694 19.9798 32.9037 20.3658 33.0251C20.7688 33.1458 21.1909 33.19 21.6102 33.1554H22.9653H25.6951H36.7708H47.8464H50.5697H51.9248C52.3441 33.1907 52.7663 33.1465 53.1692 33.0251C53.5576 32.9046 53.9123 32.6949 54.2051 32.4127L55.1563 31.4876L57.0392 29.6503L57.9708 28.7447C58.2894 28.4331 58.6362 28.1518 59.0067 27.9043C59.7476 27.4236 60.579 27.0999 61.4499 26.9531C62.2839 26.8502 63.1252 26.8175 63.9647 26.8554H66.3883H71.0335C71.1934 26.8782 71.3558 26.8782 71.5157 26.8554C71.5729 26.8353 71.6248 26.8027 71.6677 26.7598C71.7105 26.7169 71.7432 26.665 71.7632 26.6078C71.7977 26.454 71.8087 26.2958 71.7958 26.1387V25.5914C71.7958 24.8683 71.7958 24.1581 71.7958 23.4675C71.7958 20.6791 71.7958 18.1317 71.7958 15.8709C71.7958 14.7373 71.7958 13.6884 71.7372 12.7177C71.6716 11.8302 71.5563 10.9471 71.3919 10.0725C71.1607 8.84575 70.8561 7.63394 70.4798 6.44363C70.3495 6.02666 70.2517 5.70742 70.1736 5.49893L70.0889 5.16016Z" fill="#54372B"/>
<path d="M71.392 97.0226C71.392 97.0226 71.3008 97.2963 71.0858 97.7914C70.7787 98.5125 70.4216 99.2113 70.0173 99.8827C69.7469 100.263 69.3945 100.577 68.9863 100.803C68.5781 101.028 68.1245 101.159 67.6589 101.186C67.3071 101.186 67.0074 101.186 66.636 101.186H61.9451C55.0783 101.231 45.9246 101.186 36.7644 101.186C27.6042 101.186 18.4505 101.186 11.5836 101.186H6.89924C6.54743 101.186 6.24773 101.186 5.88289 101.186C5.54255 101.169 5.20759 101.094 4.8926 100.964C4.33851 100.743 3.86086 100.365 3.51792 99.8762C3.11203 99.2046 2.75285 98.5058 2.44293 97.7849C2.23445 97.2897 2.13672 97.0161 2.13672 97.0161C2.13672 97.0161 2.31914 97.2376 2.63186 97.6676C2.94459 98.0976 3.36155 98.8012 3.8567 99.6221C4.15629 100.041 4.57024 100.364 5.04896 100.554C5.32014 100.658 5.60586 100.72 5.89592 100.736H6.89924H11.5836C18.4505 100.691 27.6107 100.736 36.7644 100.736C45.918 100.736 55.0783 100.736 61.9451 100.736H66.636H67.6328C67.923 100.72 68.2088 100.659 68.4798 100.554C68.9585 100.364 69.3724 100.041 69.672 99.6221C70.1737 98.8012 70.5907 98.0976 70.8969 97.6676C71.2031 97.2376 71.392 97.0226 71.392 97.0226Z" fill="#54372B"/>
<path d="M6.05273 1.44663L15.6494 1.2968L25.4872 1.2186L36.7648 1.18604L48.0424 1.2186L57.8867 1.2968L67.4834 1.44663L57.8867 1.58997L48.0424 1.67467L36.7648 1.70723L25.5068 1.66814L15.669 1.58997L6.05273 1.44663Z" fill="#54372B"/>
<path d="M71.7642 88.7485L71.5818 88.8398C71.408 88.9273 71.2297 89.0055 71.0476 89.0743C70.3509 89.3538 69.6371 89.5889 68.9106 89.7779C67.979 90.0255 66.8323 90.2796 65.5098 90.5141C64.1872 90.7487 62.6822 90.9767 61.0339 91.1656C59.3856 91.3546 57.6005 91.524 55.7111 91.6803L52.7988 91.8823L49.7563 92.0321C47.6845 92.1103 45.5476 92.1885 43.378 92.2276C41.2085 92.2667 38.9999 92.2862 36.7913 92.3058C34.5827 92.3253 32.3871 92.3058 30.2111 92.2276C28.035 92.1494 25.8981 92.1103 23.8328 92.0321L20.7903 91.8823L17.878 91.6803C15.9821 91.5305 14.197 91.3546 12.5552 91.1656C10.9134 90.9767 9.40191 90.7552 8.07935 90.5141C6.75679 90.2731 5.61014 90.0255 4.67196 89.7779C3.94874 89.5876 3.23736 89.3549 2.54153 89.0808C2.30048 88.9831 2.11805 88.8984 2.00078 88.8398L1.81836 88.7485L2.0073 88.8267C2.18391 88.9124 2.36688 88.9843 2.55456 89.0417C3.25834 89.2886 3.97628 89.4932 4.70454 89.6541C5.64271 89.8691 6.78936 90.0841 8.11844 90.3056C9.44752 90.5272 10.9525 90.664 12.5943 90.8334C14.2361 91.0028 16.0212 91.1265 17.9106 91.2373C19.8 91.3481 21.8196 91.4197 23.8524 91.5044C25.8851 91.5891 28.0481 91.6282 30.2176 91.6543C32.3871 91.6803 34.5957 91.6543 36.7913 91.6934C38.9869 91.7325 41.202 91.6934 43.365 91.6543C45.528 91.6152 47.6715 91.5696 49.7302 91.5044L52.7728 91.3806L55.6785 91.2373C57.5679 91.1265 59.353 90.9897 60.9948 90.8334C62.6366 90.677 64.1416 90.5011 65.4707 90.3056C66.7997 90.1102 67.9464 89.8952 68.8846 89.6541C69.6126 89.4922 70.3305 89.2878 71.0345 89.0417C71.2214 88.9819 71.4042 88.9101 71.5818 88.8267L71.7642 88.7485Z" fill="#54372B"/>
<path d="M6.90625 42.1857C6.90625 42.1857 8.43729 41.9707 10.7436 41.7166C11.8903 41.6059 13.2324 41.443 14.6527 41.3127L19.1676 40.9088L23.6891 40.57C25.1289 40.4592 26.4841 40.3941 27.6372 40.3224C29.9501 40.1921 31.4942 40.1465 31.4942 40.1465C31.4942 40.1465 29.9631 40.3615 27.6633 40.6156C26.5101 40.7328 25.168 40.8892 23.7542 41.0195L19.2328 41.4235L14.7113 41.7622C13.2715 41.873 11.9229 41.9381 10.7632 42.0098C8.45032 42.1401 6.90625 42.1857 6.90625 42.1857Z" fill="#54372B"/>
<path d="M42.7838 13.2781C41.3913 11.887 39.5595 11.0217 37.6006 10.8297C35.6416 10.6376 33.6767 11.1307 32.0405 12.2249C30.4043 13.319 29.1981 14.9466 28.6273 16.8304C28.0565 18.7141 28.1565 20.7375 28.9102 22.5558C29.6639 24.3742 31.0247 25.8749 32.7608 26.8025C34.4969 27.73 36.5008 28.027 38.4313 27.6428C40.3618 27.2586 42.0993 26.217 43.3479 24.6954C44.5966 23.1738 45.279 21.2663 45.2791 19.298C45.2785 17.0399 44.3809 14.8745 42.7838 13.2781ZM31.2065 13.7406C32.6009 12.3478 34.4674 11.5294 36.4365 11.4474C38.4056 11.3653 40.3338 12.0256 41.8391 13.2976L30.7635 24.3733C29.4893 22.8693 28.8269 20.9413 28.9077 18.9718C28.9886 17.0023 29.8068 15.1351 31.2 13.7406H31.2065ZM42.3278 24.8554C40.9322 26.2491 39.064 27.0675 37.0933 27.1483C35.1227 27.2292 33.1937 26.5666 31.6887 25.2919L42.7643 14.2162C44.0385 15.7202 44.7009 17.6482 44.6201 19.6177C44.5392 21.5872 43.721 23.4544 42.3278 24.8489V24.8554Z" fill="#54372B"/>
<path d="M33.9757 20.2814L35.8651 18.4181L37.7284 16.5287L39.3311 14.8609C40.2693 13.8771 40.8752 13.2061 40.8752 13.2061C40.8752 13.2061 40.2237 13.8119 39.2138 14.7436L37.546 16.3528L35.6566 18.2162L33.7933 20.1055L32.1906 21.7734C31.2524 22.7572 30.6465 23.4282 30.6465 23.4282C30.6465 23.4282 31.298 22.8223 32.3078 21.8906L33.9757 20.2814Z" fill="#54372B"/>
<path d="M41.2001 16.7046L39.5323 18.3073L37.6429 20.1706L35.7796 22.06L34.1704 23.7343C33.2387 24.7116 32.6328 25.3892 32.6328 25.3892C32.6328 25.3892 33.2843 24.7833 34.2876 23.8451L35.9294 22.2424L37.8188 20.3791L39.6821 18.4897L41.2914 16.8218C42.223 15.8381 42.8289 15.167 42.8289 15.167C42.8289 15.167 42.1839 15.7729 41.2001 16.7046Z" fill="#54372B"/>
<path d="M46.8112 13.0824C44.3876 9.89648 40.8695 7.79862 36.778 7.79862C32.6866 7.79862 29.1554 9.88997 26.7188 13.0824C27.7098 11.2855 29.1646 9.7874 30.9316 8.74407C32.6985 7.70074 34.713 7.15039 36.765 7.15039C38.817 7.15039 40.8315 7.70074 42.5984 8.74407C44.3654 9.7874 45.8202 11.2855 46.8112 13.0824Z" fill="#54372B"/>
<path d="M66.6292 9.71436H51.6575C51.1897 9.71436 50.8105 10.0936 50.8105 10.5613V17.5455C50.8105 18.0132 51.1897 18.3924 51.6575 18.3924H66.6292C67.0969 18.3924 67.4761 18.0132 67.4761 17.5455V10.5613C67.4761 10.0936 67.0969 9.71436 66.6292 9.71436Z" fill="#54372B"/>
<path d="M66.8377 10.5479V17.5581C66.8386 17.5834 66.8343 17.6087 66.8252 17.6324C66.8161 17.6561 66.8023 17.6777 66.7847 17.6959C66.7671 17.7141 66.7459 17.7287 66.7226 17.7386C66.6992 17.7485 66.6741 17.7535 66.6487 17.7535H51.6641C58.6417 16.4831 64.1274 14.3266 66.8377 10.5479Z" fill="#F8E4BE"/>
<path d="M53.0842 21.6759C53.0842 21.8875 53.0214 22.0944 52.9037 22.2702C52.786 22.4461 52.6187 22.583 52.4231 22.6637C52.2275 22.7443 52.0123 22.7651 51.8049 22.7234C51.5974 22.6816 51.4071 22.5792 51.2579 22.4291C51.1087 22.279 51.0075 22.088 50.967 21.8803C50.9265 21.6726 50.9486 21.4576 51.0305 21.2625C51.1124 21.0674 51.2503 20.901 51.4269 20.7843C51.6034 20.6677 51.8107 20.6062 52.0223 20.6074C52.1623 20.6074 52.3009 20.6351 52.4302 20.6889C52.5594 20.7427 52.6768 20.8215 52.7755 20.9208C52.8742 21.0201 52.9523 21.1379 53.0053 21.2675C53.0582 21.3971 53.0851 21.5359 53.0842 21.6759Z" fill="#54372B"/>
<path d="M55.5795 22.7377C56.166 22.7377 56.6415 22.2622 56.6415 21.6757C56.6415 21.0892 56.166 20.6138 55.5795 20.6138C54.993 20.6138 54.5176 21.0892 54.5176 21.6757C54.5176 22.2622 54.993 22.7377 55.5795 22.7377Z" fill="#54372B"/>
<path d="M59.144 22.7377C59.7305 22.7377 60.2059 22.2622 60.2059 21.6757C60.2059 21.0892 59.7305 20.6138 59.144 20.6138C58.5575 20.6138 58.082 21.0892 58.082 21.6757C58.082 22.2622 58.5575 22.7377 59.144 22.7377Z" fill="#54372B"/>
<path d="M62.7084 22.7377C63.2949 22.7377 63.7704 22.2622 63.7704 21.6757C63.7704 21.0892 63.2949 20.6138 62.7084 20.6138C62.1219 20.6138 61.6465 21.0892 61.6465 21.6757C61.6465 22.2622 62.1219 22.7377 62.7084 22.7377Z" fill="#54372B"/>
<path d="M66.2788 22.7377C66.8653 22.7377 67.3407 22.2622 67.3407 21.6757C67.3407 21.0892 66.8653 20.6138 66.2788 20.6138C65.6923 20.6138 65.2168 21.0892 65.2168 21.6757C65.2168 22.2622 65.6923 22.7377 66.2788 22.7377Z" fill="#54372B"/>
<path d="M10.6777 11.1997H13.831C14.047 11.1997 14.2541 11.2855 14.4068 11.4382C14.5595 11.591 14.6453 11.7981 14.6453 12.0141V20.4381C14.6453 20.6541 14.5595 20.8612 14.4068 21.0139C14.2541 21.1667 14.047 21.2525 13.831 21.2525H10.6777C10.4617 21.2525 10.2545 21.1667 10.1018 21.0139C9.94908 20.8612 9.86328 20.6541 9.86328 20.4381V12.0141C9.86498 11.7986 9.95133 11.5925 10.1037 11.4401C10.2561 11.2878 10.4622 11.2014 10.6777 11.1997Z" fill="#54372B"/>
<path d="M13.8312 11.8379H10.6779C10.5807 11.8379 10.502 11.9166 10.502 12.0138V20.4378C10.502 20.5349 10.5807 20.6137 10.6779 20.6137H13.8312C13.9283 20.6137 14.0071 20.5349 14.0071 20.4378V12.0138C14.0071 11.9166 13.9283 11.8379 13.8312 11.8379Z" fill="#F8E4BE"/>
<path d="M10.8203 20.2948C12.4947 19.7997 13.3807 18.0797 13.6869 15.4541V20.2948H10.8203Z" fill="#54372B"/>
<path d="M12.2554 13.317C12.4354 13.317 12.5812 13.1712 12.5812 12.9913C12.5812 12.8114 12.4354 12.6655 12.2554 12.6655C12.0755 12.6655 11.9297 12.8114 11.9297 12.9913C11.9297 13.1712 12.0755 13.317 12.2554 13.317Z" fill="#54372B"/>
<path d="M17.8373 13.3236C18.0474 13.3236 18.2527 13.2613 18.4273 13.1446C18.602 13.0279 18.7381 12.8621 18.8185 12.6681C18.8988 12.474 18.9199 12.2605 18.8789 12.0545C18.8379 11.8485 18.7368 11.6593 18.5883 11.5107C18.4397 11.3622 18.2505 11.2611 18.0445 11.2201C17.8385 11.1791 17.625 11.2002 17.431 11.2805C17.2369 11.3609 17.0711 11.497 16.9544 11.6717C16.8377 11.8463 16.7754 12.0516 16.7754 12.2617C16.7754 12.5433 16.8873 12.8134 17.0864 13.0126C17.2856 13.2117 17.5557 13.3236 17.8373 13.3236Z" fill="#54372B"/>
<path d="M17.8387 15.1607C17.6271 15.1594 17.4198 15.2209 17.2433 15.3376C17.0667 15.4542 16.9288 15.6206 16.8469 15.8157C16.765 16.0108 16.7429 16.2259 16.7834 16.4336C16.8239 16.6412 16.9251 16.8322 17.0743 16.9823C17.2235 17.1324 17.4138 17.2348 17.6213 17.2766C17.8287 17.3183 18.0439 17.2976 18.2395 17.2169C18.4351 17.1362 18.6024 16.9993 18.7201 16.8234C18.8378 16.6476 18.9006 16.4407 18.9006 16.2291C18.9015 16.0891 18.8746 15.9503 18.8217 15.8207C18.7687 15.6911 18.6906 15.5733 18.5919 15.474C18.4932 15.3747 18.3758 15.2959 18.2466 15.2421C18.1173 15.1883 17.9787 15.1607 17.8387 15.1607Z" fill="#54372B"/>
<path d="M17.8386 19.1284C17.6268 19.1271 17.4193 19.1889 17.2426 19.3058C17.0659 19.4227 16.9279 19.5895 16.8463 19.785C16.7646 19.9805 16.7429 20.1959 16.7839 20.4037C16.8249 20.6116 16.9268 20.8026 17.0766 20.9524C17.2264 21.1022 17.4174 21.2041 17.6253 21.2451C17.8332 21.2862 18.0485 21.2644 18.244 21.1828C18.4395 21.1011 18.6063 20.9631 18.7232 20.7864C18.8402 20.6097 18.9019 20.4023 18.9006 20.1904C18.9006 19.9087 18.7887 19.6386 18.5896 19.4395C18.3904 19.2403 18.1203 19.1284 17.8386 19.1284Z" fill="#54372B"/>
<path d="M32.1393 96.2086C32.1056 96.2868 32.0569 96.3576 31.996 96.4171C32.0579 96.4772 32.1086 96.5477 32.1458 96.6255C32.1822 96.7053 32.201 96.792 32.201 96.8796C32.201 96.9673 32.1822 97.054 32.1458 97.1337C32.0971 97.2262 32.0281 97.3064 31.9439 97.3683C31.8583 97.4369 31.7612 97.4898 31.6572 97.5246C31.5444 97.5652 31.4252 97.585 31.3054 97.5833H29.6896V96.6972H29.416V96.1434H29.7027V95.2509H31.2989C31.5341 95.2396 31.7654 95.3136 31.9504 95.4594C32.0316 95.5187 32.098 95.5961 32.1444 95.6853C32.1907 95.7746 32.2157 95.8734 32.2175 95.974C32.2084 96.0569 32.1818 96.1369 32.1393 96.2086ZM31.4357 95.8568C31.3933 95.8225 31.3403 95.8041 31.2858 95.8047H30.3802V96.1434H31.2858C31.3403 96.144 31.3933 96.1256 31.4357 96.0913C31.4545 96.0781 31.4699 96.0605 31.4805 96.0401C31.4911 96.0197 31.4966 95.997 31.4966 95.974C31.4966 95.951 31.4911 95.9284 31.4805 95.908C31.4699 95.8876 31.4545 95.87 31.4357 95.8568ZM31.4357 96.7428C31.3927 96.7104 31.3396 96.6943 31.2858 96.6972H30.3802V97.0295H31.2858C31.3403 97.0301 31.3933 97.0116 31.4357 96.9774C31.4545 96.9641 31.4699 96.9466 31.4805 96.9262C31.4911 96.9058 31.4966 96.8831 31.4966 96.8601C31.4966 96.8371 31.4911 96.8144 31.4805 96.794C31.4699 96.7736 31.4545 96.7561 31.4357 96.7428Z" fill="#54372B"/>
<path d="M35.2801 96.5994C35.2033 96.7253 35.1013 96.834 34.9804 96.9186C35.066 97.0112 35.1363 97.1167 35.1889 97.2313C35.235 97.343 35.2594 97.4624 35.2605 97.5831H34.5699C34.5716 97.5003 34.549 97.4187 34.5048 97.3486C34.4576 97.2699 34.393 97.203 34.3158 97.1531H33.5145V97.5766H32.8239V97.1531H32.3613V96.5994H32.8239V95.2442H34.1921C34.4986 95.2351 34.7985 95.3343 35.039 95.5244C35.1435 95.5989 35.2296 95.6964 35.2905 95.8093C35.3515 95.9222 35.3858 96.0476 35.3908 96.1759C35.3902 96.3241 35.3521 96.4698 35.2801 96.5994ZM34.5439 95.9479C34.4408 95.87 34.3147 95.8287 34.1855 95.8306H33.534V96.632H34.1855C34.3147 96.6339 34.4408 96.5926 34.5439 96.5147C34.5892 96.482 34.6259 96.4389 34.6508 96.389C34.6758 96.3391 34.6883 96.2838 34.6872 96.228C34.6917 96.1696 34.6815 96.111 34.6576 96.0576C34.6337 96.0041 34.5969 95.9574 34.5504 95.9218L34.5439 95.9479Z" fill="#54372B"/>
<path d="M37.547 97.5831V97.1596H36.5827V97.5831H35.8856V97.1596H35.5859V96.6058H35.8856V96.1368C35.8874 96.0085 35.9196 95.8826 35.9796 95.7693C36.0397 95.656 36.1258 95.5586 36.2309 95.4852C36.4662 95.3018 36.7546 95.1995 37.0529 95.1936C37.3512 95.1878 37.6434 95.2786 37.8858 95.4527C37.9898 95.5272 38.0751 95.6248 38.135 95.7378C38.1949 95.8509 38.2278 95.9763 38.2311 96.1042V97.5505L37.547 97.5831ZM37.547 96.4886V96.1368C37.5462 96.0838 37.5336 96.0317 37.5099 95.9843C37.4862 95.9369 37.4521 95.8955 37.4102 95.8631C37.3121 95.7852 37.1901 95.7438 37.0649 95.7459C36.9395 95.7427 36.8171 95.7842 36.7196 95.8631C36.6768 95.8952 36.6417 95.9363 36.6169 95.9837C36.5921 96.031 36.5782 96.0833 36.5762 96.1368V96.6058H37.547V96.4886Z" fill="#54372B"/>
<path d="M40.5503 97.5829V95.8043H39.775C39.6176 95.8019 39.4639 95.8524 39.3385 95.9477C39.2826 95.9864 39.2369 96.0379 39.2051 96.098C39.1734 96.1581 39.1566 96.225 39.1561 96.293V97.596H38.459V95.2636H39.1887V95.3874C39.2828 95.3463 39.3811 95.3157 39.4819 95.2962C39.5892 95.275 39.6982 95.2641 39.8076 95.2636H40.622C40.7886 95.2602 40.9516 95.313 41.0846 95.4134C41.1422 95.4569 41.1891 95.513 41.2219 95.5773C41.2546 95.6417 41.2723 95.7126 41.2735 95.7848V97.596L40.5503 97.5829Z" fill="#54372B"/>
<path d="M43.8917 97.4073C43.7608 97.5125 43.597 97.5678 43.4291 97.5637H41.4746V95.2313H43.4291C43.5962 95.2247 43.7602 95.2778 43.8917 95.3811C43.9502 95.4253 43.9977 95.4824 44.0304 95.5479C44.0632 95.6135 44.0804 95.6857 44.0806 95.759V97.062C44.0756 97.1297 44.0562 97.1956 44.0236 97.2551C43.991 97.3147 43.946 97.3666 43.8917 97.4073ZM43.39 95.785H42.1717V97.0099H43.39V95.785Z" fill="#54372B"/>
</svg>
