<svg width="107" height="107" viewBox="0 0 107 107" fill="none" xmlns="http://www.w3.org/2000/svg">
<path d="M61.1435 20.9542C61.1435 16.7683 57.7217 13.375 53.5007 13.375C49.2796 13.375 45.8578 16.7683 45.8578 20.9542C45.8578 21.2269 45.8723 21.4962 45.9059 21.7577L45.9006 21.7589C46.3077 25.5664 49.5701 28.5333 53.5007 28.5333C57.6049 28.5333 60.9808 25.2983 61.1378 21.2491C61.1416 21.1513 61.1435 21.0529 61.1435 20.9542Z" fill="#F8E4BE"/>
<path d="M71.3584 55.7203C71.6988 60.2956 75.55 63.9028 80.2507 63.9028C81.5852 63.9028 82.8512 63.612 83.9879 63.091C84.162 63.0112 84.3331 62.9259 84.5009 62.8355C87.2804 61.3382 89.1673 58.4178 89.1673 55.0604C89.1673 54.6364 89.1372 54.2193 89.079 53.8112L89.0802 53.8321C89.1028 54.1539 89.121 54.477 89.1349 54.8012L89.0802 53.8321C87.9692 38.0003 76.3519 25.0389 61.1007 21.7614C61.1187 21.5923 61.1311 21.4214 61.1378 21.2491C60.9808 25.2983 57.6049 28.5333 53.5007 28.5333C49.5701 28.5333 46.3077 25.5664 45.9006 21.7589C30.7636 25.0167 19.21 37.8043 17.9485 53.469L17.9307 53.7538C17.867 54.1801 17.834 54.6165 17.834 55.0604C17.834 58.6207 19.9558 61.6895 23.0138 63.0911C24.1504 63.6121 25.4163 63.9028 26.7507 63.9028C31.434 63.9028 35.2741 60.3222 35.639 55.7709L35.6629 55.1139L35.6664 55.1883C35.667 55.1457 35.6673 55.1031 35.6673 55.0604C35.6673 55.1235 35.668 55.1864 35.6693 55.2492L35.6918 55.7203C36.0322 60.2956 39.8833 63.9028 44.584 63.9028C45.0614 63.9028 45.5301 63.8656 45.9872 63.7939C46.1148 63.7739 46.2415 63.7512 46.3672 63.7259C46.4586 63.7075 46.5495 63.6877 46.6398 63.6665C46.6986 63.6528 46.7572 63.6384 46.8155 63.6235C50.4916 62.6837 53.2472 59.4761 53.4803 55.5945L53.4962 55.1139L53.5007 55.0604C53.5007 55.1235 53.5013 55.1864 53.5026 55.2492L53.5251 55.7203C53.8655 60.2956 57.7166 63.9028 62.4173 63.9028C67.118 63.9028 70.9691 60.2956 71.3095 55.7203L71.3295 55.1139L71.3331 55.1883C71.3337 55.1457 71.334 55.1031 71.334 55.0604C71.334 54.9539 71.3321 54.8479 71.3429 54.7394L71.334 55.0604C71.334 55.1235 71.3347 55.1864 71.336 55.2492L71.3584 55.7203Z" fill="#F8E4BE"/>
<path d="M80.2507 63.9028C75.55 63.9028 71.6988 60.2956 71.3584 55.7203C71.3468 55.5644 71.3393 55.4073 71.336 55.2492L71.3331 55.1883C71.3305 55.367 71.3226 55.5444 71.3095 55.7203C70.9691 60.2956 67.118 63.9028 62.4173 63.9028C57.7166 63.9028 53.8655 60.2956 53.5251 55.7203C53.5135 55.5644 53.506 55.4073 53.5026 55.2492L53.4962 55.1139C53.4952 55.2752 53.4899 55.4354 53.4803 55.5945L53.4762 55.7203C53.1916 59.5456 50.453 62.694 46.8155 63.6235C46.7572 63.6384 46.6986 63.6528 46.6398 63.6665C46.5495 63.6877 46.4586 63.7075 46.3672 63.7259C46.2415 63.7512 46.1148 63.7739 45.9872 63.7939C45.5301 63.8656 45.0614 63.9028 44.584 63.9028C39.8833 63.9028 36.0322 60.2956 35.6918 55.7203C35.6802 55.5644 35.6726 55.4073 35.6693 55.2492L35.6664 55.1883C35.6636 55.3841 35.6544 55.5783 35.639 55.7709C35.2741 60.3222 31.434 63.9028 26.7507 63.9028C25.4163 63.9028 24.1504 63.6121 23.0138 63.0911L28.0245 89.1667H78.9768L83.9879 63.091C82.8512 63.612 81.5852 63.9028 80.2507 63.9028Z" fill="#F8E4BE"/>
<path d="M45.8578 20.9542C45.8578 16.7683 49.2796 13.375 53.5007 13.375C57.7217 13.375 61.1435 16.7683 61.1435 20.9542C61.1435 21.0529 61.1416 21.1513 61.1378 21.2491M45.8578 20.9542C45.8578 21.2269 45.8723 21.4962 45.9059 21.7577L45.9006 21.7589M45.8578 20.9542C45.8578 21.226 45.8723 21.4945 45.9006 21.7589M71.3584 55.7203C71.6988 60.2956 75.55 63.9028 80.2507 63.9028M71.3584 55.7203L71.336 55.2492M71.3584 55.7203C71.3468 55.5644 71.3393 55.4073 71.336 55.2492M80.2507 63.9028C81.5852 63.9028 82.8512 63.612 83.9879 63.091M80.2507 63.9028C75.3897 63.9028 71.4373 60.0455 71.336 55.2492M80.2507 63.9028C81.7896 63.9028 83.2374 63.5162 84.5009 62.8355M83.9879 63.091L78.9768 89.1667H28.0245L23.0138 63.0911M83.9879 63.091C84.162 63.0112 84.3331 62.9259 84.5009 62.8355M23.0138 63.0911C24.1504 63.6121 25.4163 63.9028 26.7507 63.9028M23.0138 63.0911C19.9558 61.6895 17.834 58.6207 17.834 55.0604M26.7507 63.9028C31.434 63.9028 35.2741 60.3222 35.639 55.7709M26.7507 63.9028C21.8261 63.9028 17.834 59.9439 17.834 55.0604M26.7507 63.9028C31.6321 63.9028 35.5975 60.0128 35.6664 55.1883M35.639 55.7709L35.6629 55.1139L35.6664 55.1883M35.639 55.7709C35.6544 55.5783 35.6636 55.3841 35.6664 55.1883M35.6918 55.7203C36.0322 60.2956 39.8833 63.9028 44.584 63.9028M35.6918 55.7203L35.6693 55.2492M35.6918 55.7203C35.6802 55.5644 35.6726 55.4073 35.6693 55.2492M44.584 63.9028C45.0614 63.9028 45.5301 63.8656 45.9872 63.7939C46.1148 63.7739 46.2415 63.7512 46.3672 63.7259C46.4586 63.7075 46.5495 63.6877 46.6398 63.6665C46.6986 63.6528 46.7572 63.6384 46.8155 63.6235M44.584 63.9028C39.723 63.9028 35.7706 60.0455 35.6693 55.2492M53.4962 55.1139L53.5007 55.0604C53.5007 55.1235 53.5013 55.1864 53.5026 55.2492M53.4962 55.1139L53.4803 55.5945M53.4962 55.1139L53.5026 55.2492M53.4962 55.1139C53.4952 55.2752 53.4899 55.4354 53.4803 55.5945M53.5251 55.7203C53.8655 60.2956 57.7166 63.9028 62.4173 63.9028M53.5251 55.7203L53.5026 55.2492M53.5251 55.7203C53.5135 55.5644 53.506 55.4073 53.5026 55.2492M62.4173 63.9028C67.118 63.9028 70.9691 60.2956 71.3095 55.7203M62.4173 63.9028C57.5564 63.9028 53.604 60.0455 53.5026 55.2492M62.4173 63.9028C67.2988 63.9028 71.2641 60.0128 71.3331 55.1883M71.3095 55.7203L71.3295 55.1139L71.3331 55.1883M71.3095 55.7203C71.3226 55.5444 71.3305 55.367 71.3331 55.1883M71.334 55.0604L71.3429 54.7394C71.3321 54.8479 71.334 54.9539 71.334 55.0604ZM71.334 55.0604C71.334 55.1031 71.3337 55.1457 71.3331 55.1883M71.334 55.0604C71.334 55.1235 71.3347 55.1864 71.336 55.2492M17.834 55.0604C17.834 54.6165 17.867 54.1801 17.9307 53.7538L17.9485 53.469C19.21 37.8043 30.7636 25.0167 45.9006 21.7589M69.4233 71.4819L68.1495 81.5875M54.1376 71.4819V81.5875M38.8518 71.4819L40.1257 81.5875M61.1378 21.2491C60.9808 25.2983 57.6049 28.5333 53.5007 28.5333C49.5701 28.5333 46.3077 25.5664 45.9006 21.7589M61.1378 21.2491C61.1311 21.4214 61.1187 21.5923 61.1007 21.7614C76.3519 25.0389 87.9692 38.0003 89.0802 53.8321M71.3331 55.1883L71.336 55.2492M89.0802 53.8321L89.079 53.8112C89.1372 54.2193 89.1673 54.6364 89.1673 55.0604C89.1673 58.4178 87.2804 61.3382 84.5009 62.8355M89.0802 53.8321C89.1028 54.1539 89.121 54.477 89.1349 54.8012L89.0802 53.8321ZM35.6664 55.1883C35.667 55.1457 35.6673 55.1031 35.6673 55.0604C35.6673 55.1235 35.668 55.1864 35.6693 55.2492M35.6664 55.1883L35.6693 55.2492M53.4803 55.5945L53.4762 55.7203C53.1916 59.5456 50.453 62.694 46.8155 63.6235M53.4803 55.5945C53.2472 59.4761 50.4916 62.6837 46.8155 63.6235" stroke="black" stroke-linejoin="round"/>
</svg>
