<svg width="103" height="104" viewBox="0 0 103 104" fill="none" xmlns="http://www.w3.org/2000/svg">
<path fill-rule="evenodd" clip-rule="evenodd" d="M4.4658 0.00374504L0 0L0.00373162 4.46581L0.0246366 29.4911C0.0355774 42.5921 5.4909 54.7028 14.511 63.3167C14.3742 57.9743 14.9912 52.5498 16.4218 47.1931L26.6234 8.99285L70.0084 20.6568L69.995 4.5095L69.9915 0.0586362L65.5403 0.0549089L4.4658 0.00374504ZM38.3244 21.3725L32.9336 19.9233L31.4933 25.3165L25.0365 49.4945C19.5334 70.101 28.3084 91.8821 46.5625 102.863L47.9308 103.686L49.5273 103.66C70.8198 103.308 89.2814 88.8367 94.7852 68.2271L101.242 44.0491L102.678 38.6737L97.3046 37.2293L38.3244 21.3725ZM35.8049 52.3702L40.8215 33.5855L89.0379 46.5485L84.017 65.351C79.9313 80.6489 66.5581 91.5094 50.9491 92.4537C37.8908 83.7992 31.7186 67.672 35.8049 52.3702ZM47.3102 55.5971C46.2125 55.302 45.0649 55.9515 44.7627 57.0835L36.1477 54.7826C37.7157 48.9109 43.7426 45.4045 49.6254 46.9863C55.5019 48.5659 58.9678 54.6149 57.4011 60.4812L48.7863 58.1807C49.0899 57.0434 48.4136 55.8936 47.3102 55.5971ZM69.7311 64.4415C70.0334 63.3096 71.1814 62.66 72.2791 62.9551C73.3825 63.2516 74.0588 64.4014 73.7552 65.5387L82.37 67.8392C83.9367 61.973 80.4708 55.9239 74.5938 54.3439C68.7115 52.7625 62.6847 56.269 61.1167 62.1406L69.7311 64.4415Z" fill="#F8E4BE"/>
</svg>
